:SAMPLES-PER-SECOND 30
:FULLY-SPECIFIED
:DEGREES
309
root  -50.6722 39.727 2.42478 -1.83032 16.3789 -3.41714
RightUpLeg  -16.4829 -5.80689 -8.04112
RightLeg  63.2358 -2.52965 -5.98856
RightFoot  11.5667 -0.325805 1.99336
RightToes  -5.8209e-011 0 -3.6325e-017
Spine  5.54728 -0.794091 1.96386
Spine1  5.03566 -0.236307 -3.65425
HEad  47.9283 -7.66216 -179.932
LeftShoulder1  6.74709 -9.28701 -45.9741
LeftArm  -2.93108 16.6803 -29.2922
LeftForeArm  25.4342 -22.7778 -3.75231
LeftHand  -0.244104 0.0205437 5.32207
RightShoulder  5.96748 9.57472 39.516
RightArm  2.91142 -24.1282 34.0491
RightForeArm  10.377 21.2878 4.46967
RightHand  -0.223011 -2.45689 -8.46941
LeftUpLeg  -3.84895 0.238187 -11.6798
LeftLeg  11.5494 20.2172 -0.772954
LeftFoot  -12.3783 0.232969 17.3114
LeftToes  1.76439e-010 -1.07097e-011 2.32476e-011
310
root  -50.5884 39.9421 3.51022 -2.38254 21.5654 -4.70183
RightUpLeg  -20.3484 -4.81981 -7.13331
RightLeg  59.3813 -4.30639 -8.28714
RightFoot  8.92906 0.127179 -0.330845
RightToes  -5.8209e-011 0 -3.6325e-017
Spine  6.52315 -1.46387 2.42482
Spine1  4.5458 -1.17099 -2.26657
HEad  48.3624 -5.973 -179.261
LeftShoulder1  7.0071 -9.66047 -46.4064
LeftArm  -1.78869 12.6085 -31.2805
LeftForeArm  29.508 -27.9991 -4.41694
LeftHand  -0.244104 0.0205437 5.32207
RightShoulder  5.88029 9.47468 39.2114
RightArm  3.36887 -25.0064 34.2319
RightForeArm  8.28053 21.8638 4.53435
RightHand  -0.195032 -2.72582 -8.04581
LeftUpLeg  -0.67026 -0.0330971 -10.2601
LeftLeg  9.97012 15.2604 -1.4996
LeftFoot  -12.5208 0.258076 17.5428
LeftToes  1.76439e-010 -1.07097e-011 2.32476e-011
311
root  -50.4798 40.0827 4.59168 -3.34235 26.3154 -5.70471
RightUpLeg  -22.512 -4.51147 -6.91924
RightLeg  52.2792 -5.71939 -8.27188
RightFoot  6.17967 -0.0565173 0.656912
RightToes  -5.8209e-011 0 -3.6325e-017
Spine  7.9619 -2.00033 2.53655
Spine1  4.18602 -1.97573 -0.891681
HEad  49.6837 -3.86535 -178.577
LeftShoulder1  7.33095 -10.1028 -46.9902
LeftArm  -0.864815 8.93846 -32.8933
LeftForeArm  32.5062 -32.9185 -5.42352
LeftHand  -0.244104 0.0205437 5.32207
RightShoulder  5.85169 9.46523 39.0323
RightArm  3.68684 -24.7744 33.9535
RightForeArm  8.50991 21.4081 4.57667
RightHand  -0.186904 -2.58093 -7.31989
LeftUpLeg  2.34467 0.0959572 -9.01656
LeftLeg  9.29202 10.5214 -1.45958
LeftFoot  -13.1534 0.356033 17.4008
LeftToes  1.76439e-010 -1.07097e-011 2.32476e-011
312
root  -50.3438 40.0437 5.75014 -4.01968 30.4034 -6.16968
RightUpLeg  -23.3724 -4.65783 -7.12653
RightLeg  41.9791 -6.03953 -6.10154
RightFoot  4.98357 -0.321608 2.46362
RightToes  -5.8209e-011 0 -3.6325e-017
Spine  8.80013 -2.22465 2.1811
Spine1  4.22124 -2.42354 0.0180889
HEad  51.3766 -1.88117 -178.123
LeftShoulder1  7.71237 -10.6446 -47.5605
LeftArm  0.635761 5.55124 -34.2386
LeftForeArm  34.329 -36.8866 -6.33179
LeftHand  -0.244104 0.0205437 5.32207
RightShoulder  5.86117 9.52754 38.8957
RightArm  3.45453 -23.8308 33.3132
RightForeArm  10.1802 20.0336 4.73267
RightHand  -0.200112 -2.2129 -6.99506
LeftUpLeg  4.37455 0.509818 -8.02349
LeftLeg  10.391 6.26925 -1.07345
LeftFoot  -14.7045 0.584151 16.7374
LeftToes  1.76439e-010 -1.07097e-011 2.32476e-011
313
root  -50.1174 39.9405 7.00374 -4.0256 33.7859 -6.35501
RightUpLeg  -23.4655 -5.94086 -6.98245
RightLeg  28.8073 -4.4917 -3.06278
RightFoot  5.28897 -0.574296 4.16267
RightToes  -5.8209e-011 0 -3.6325e-017
Spine  8.6182 -2.22447 1.9823
Spine1  4.36351 -2.50871 0.607634
HEad  52.5003 -0.454647 -177.784
LeftShoulder1  7.98718 -11.0761 -47.8052
LeftArm  2.42249 2.6558 -35.5223
LeftForeArm  36.0002 -39.8248 -7.05306
LeftHand  -0.244104 0.0205437 5.32207
RightShoulder  5.89267 9.59809 38.8939
RightArm  2.59922 -22.5794 32.276
RightForeArm  11.3768 17.8731 5.25382
RightHand  -0.21645 -2.16328 -7.50187
LeftUpLeg  5.98367 1.0344 -6.95341
LeftLeg  11.3152 2.3851 -1.14959
LeftFoot  -16.097 0.788066 16.4923
LeftToes  1.76439e-010 -1.07097e-011 2.32476e-011
314
root  -49.7969 39.8383 8.2922 -3.78775 36.8324 -6.42918
RightUpLeg  -22.5205 -8.46177 -6.64764
RightLeg  14.0008 -1.89916 -0.143876
RightFoot  5.26163 -1.00761 7.1675
RightToes  -5.8209e-011 0 -3.6325e-017
Spine  8.19169 -2.25198 2.08035
Spine1  4.36661 -2.56082 1.17312
HEad  52.7819 0.678132 -177.761
LeftShoulder1  8.14436 -11.3281 -47.9204
LeftArm  3.69054 0.489353 -36.5205
LeftForeArm  37.9512 -42.0937 -7.6136
LeftHand  -0.244104 0.0205437 5.32207
RightShoulder  5.91861 9.61875 39.0152
RightArm  0.967304 -21.0363 30.969
RightForeArm  12.4432 15.0931 6.04714
RightHand  -0.227077 -2.43426 -8.57403
LeftUpLeg  7.81316 1.52004 -5.76605
LeftLeg  11.4257 -1.12247 -1.44699
LeftFoot  -17.2818 0.965393 16.4751
LeftToes  1.76439e-010 -1.07097e-011 2.32476e-011
